PathFileType	4	(X/Y/Z)	RBDS05\RBDS05runT45.trc
DataRate	CameraRate	NumFrames	NumMarkers	Units	OrigDataRate	OrigDataStartFrame	OrigNumFrames
150.000000	150.000000	4	32	mm	150.000000	1125	4500
Frame#	Time	L.ASIS			L.Heel.Bottom			L.Heel.Lateral			L.Heel.Top			L.Iliac.Crest			L.MT1			L.MT5			L.PSIS			L.Shank.Bottom.Lateral			L.Shank.Bottom.Medial			L.Shank.Top.Lateral			L.Shank.Top.Medial			L.Thigh.Bottom.Lateral			L.Thigh.Bottom.Medial			L.Thigh.Top.Lateral			L.Thigh.Top.Medial			R.ASIS			R.ASY			R.Heel.Bottom			R.Heel.Lateral			R.Heel.Top			R.Iliac.Crest			R.MT5			R.PSIS			R.Shank.Bottom.Lateral			R.Shank.Bottom.Medial			R.Shank.Top.Lateral			R.Shank.Top.Medial			R.Thigh.Bottom.Lateral			R.Thigh.Bottom.Medial			R.Thigh.Top.Lateral			R.Thigh.Top.Medial			
		X1	Y1	Z1	X2	Y2	Z2	X3	Y3	Z3	X4	Y4	Z4	X5	Y5	Z5	X6	Y6	Z6	X7	Y7	Z7	X8	Y8	Z8	X9	Y9	Z9	X10	Y10	Z10	X11	Y11	Z11	X12	Y12	Z12	X13	Y13	Z13	X14	Y14	Z14	X15	Y15	Z15	X16	Y16	Z16	X17	Y17	Z17	X18	Y18	Z18	X19	Y19	Z19	X20	Y20	Z20	X21	Y21	Z21	X22	Y22	Z22	X23	Y23	Z23	X24	Y24	Z24	X25	Y25	Z25	X26	Y26	Z26	X27	Y27	Z27	X28	Y28	Z28	X29	Y29	Z29	X30	Y30	Z30	X31	Y31	Z31	X32	Y32	Z32	

1126	7.500000000000001	2257.341708957037	905.1199951175366	886.8849271108888	1903.106686582025	428.4494972212638	943.2867973307232	1937.514668266617	407.7888418881656	903.7993090445572	1951.902217274364	432.3511232626307	953.1297466895269	2200.685402931578	972.4814526015234	838.9297221745152	1978.956797881199	236.9926254148197	972.5259509836844	1977.846159337623	269.0353398452909	871.6001515560062	2102.093019015759	958.6683367279738	932.3106909318485	2063.268995164415	405.4282875383675	891.4594404550772	2050.25361069391	444.1252019488352	922.379870456789	2136.542614562315	436.6396328805893	878.7439038509451	2127.305494050716	476.9369866337613	912.1041100358323	2318.272621948884	589.234005170627	840.765337230821	2265.909126806207	553.5488607274914	877.1533723558152	2249.126229533404	675.049899873324	830.7104727934964	2199.915635580661	642.1475896742292	865.5124237425551	2238.069098144058	917.6669194616474	1109.051754938304	-422932624.7739267	-31296297.15307231	75390296.51326084	1821.434418207043	50.20214166720592	1013.164274374825	1850.602555617033	58.912421092727	1051.967136259504	1837.147447487411	96.05560880754494	1015.587535106681	2188.695020951675	966.0182606703148	1132.831051069569	2001.425786297965	39.43844775181361	1073.549714040454	2100.403497142061	968.6342898884237	1022.927376689517	1943.322299890581	177.4367133706407	1074.860668569827	1905.319015101052	202.393306905001	1044.538858277696	1975.128648289507	249.8448217685459	1092.945874551522	1937.438626951858	273.5966730684181	1062.043372453808	2133.182575495639	535.7014830762475	1132.11014812284	2064.583160399258	536.6376877887951	1104.70174620633	2125.801885015653	645.0968736698422	1148.393093880896	2060.438186326558	645.5948666335847	1122.24842079294	
1127	7.506666666666667	2258.277946688575	911.5971515111354	887.0285179478694	1918.653850672639	405.5487326429604	940.2749274089159	1955.621421963921	388.5281518224459	901.2993769495906	1966.705408993029	413.7845820516674	951.0075232108982	2201.090982690816	978.8569575435641	838.819919924026	2010.250555280368	221.002254969932	968.8036210144975	2008.538101984699	254.3484979793147	868.2514300861059	2103.032192260719	964.2875524374333	932.4626748548375	2081.539009426487	396.181790225124	890.8485324264113	2065.112450596775	433.6423258245227	921.6599410890921	2152.585028345912	432.9483197464007	879.4677786175213	2139.70880992243	472.2612119602775	912.7521341579602	2327.747876191126	600.8410839578025	843.8056459618952	2275.997590024729	563.5586819179756	879.428199148275	2255.966830951073	684.1815615520702	831.8798355965772	2207.219554181188	649.8205324760419	865.9266572305385	2238.620405500839	918.8113030108209	1108.77541135129	-426686599.4051713	-31573781.27098157	76059395.01961093	1793.878248772439	59.5499170845796	1013.967036453352	1823.503362140649	66.244978526762	1052.717213590251	1811.828718184679	104.3853480200508	1016.699162586357	2193.113398762749	968.7795130080609	1132.285607224945	1971.439667357008	39.45754928705922	1073.607036030129	2101.985110652528	972.9492068999326	1023.791106334504	1918.305181810669	184.2216626274829	1075.671365742623	1880.904140878009	209.0647095011971	1044.582845745714	1950.708703611788	256.6061736734634	1093.072550512016	1913.492143909589	280.2407932191423	1061.542706076646	2116.335846747927	539.7096486991444	1130.926640506925	2047.84220732688	544.1530775869984	1103.616110992278	2114.55239473412	649.3272303233844	1147.448335763511	2049.482721246165	653.232810628163	1120.857583262317	
1128	7.513333333333334	2259.466240654609	918.277424085167	887.4083443755254	1935.837925191207	381.8006345717118	937.2887926644197	1974.867752117935	368.5630168434138	898.8491442831099	1982.760725763056	394.368848893114	948.8040900166208	2201.874181469589	985.43943422016	838.8078942342254	2042.819475927624	205.7586091741514	965.9466333384021	2040.096697147666	240.0047850281821	865.6794164676256	2104.191878537335	970.0084721856138	932.6115971858356	2100.21348289609	386.5417388852203	890.2679099539961	2080.420117391672	422.5006452825838	920.8720008849617	2168.516132525143	428.8005724765638	880.0592655877458	2152.030449340223	466.8656999781324	913.1778932648573	2336.356331161667	612.4868005802032	846.7568441058428	2285.094833439819	573.7172293280247	881.3909622086259	2262.3870548041	693.5319056026248	833.0414871637689	2214.016624469496	657.8317580760768	866.1859562649853	2239.233681015015	920.1411861772146	1108.609965884228	-430462721.9689376	-31852900.8110491	76732440.81619969	1767.823120655319	70.92980661039222	1014.7536531639	1797.848438042924	75.30738545009237	1053.422201431034	1788.371145623837	114.374285300569	1017.750428521179	2197.552388281249	971.5860337102814	1131.766043703077	1942.002996473869	39.85798251091514	1073.726346067291	2103.603089443184	977.2509114724025	1024.635122799056	1894.779189799454	192.0714857562662	1076.478010069152	1858.011423470892	216.6653926706472	1044.488523741224	1927.628516035514	264.5397388837077	1093.094802180993	1890.926148266722	287.9182696473335	1060.803580600029	2100.239691405208	544.8314071766849	1129.639434865749	2032.162665090804	552.7174881013309	1102.158120789195	2103.89292514741	654.3688420882869	1146.481530852612	2039.41441027879	661.6021602215477	1119.188142328511	
1129	7.52	2260.809599961492	925.0072282595139	888.034204505843	1954.799160393966	357.4459099899096	934.3840803764891	1995.38588812078	348.0560255207315	896.4821744302902	2000.217988742967	374.2822322864943	946.5747309164969	2202.86657476072	992.1568942876454	838.8932207277867	2076.569443976692	191.4581364336573	963.9957804082351	2072.485929437013	226.0933027445969	863.8984021521899	2105.514555979613	975.7405392625086	932.7541594496529	2119.378793716111	376.5294000124921	889.722890803196	2096.319658009393	410.7420255505622	920.0207304991221	2184.419106631944	424.1247300770006	880.483758145248	2164.411790674063	460.6957653821363	913.3458656989944	2344.096045575019	623.9000120665431	849.5698178964077	2293.200912278753	583.7289097321593	882.9795289771886	2268.336980155372	702.8678565599413	834.2017548827686	2220.264095122533	665.9241516923097	866.2954138924465	2239.854604763946	921.6652097623167	1108.57806893615	-434261057.6076496	-32133660.57875508	77409445.51220328	1743.502030823545	84.29501962664179	1015.422523498523	1773.793238386345	86.10702103580141	1054.00506968496	1766.928751969539	125.9529819406489	1018.660861467941	2201.772405068514	974.4522930320074	1131.283352844842	1913.206345822199	40.80123044327687	1073.916788652498	2105.180692398693	981.4829809101981	1025.432063454596	1872.861048063118	200.8549357235794	1077.224119219787	1836.771497904241	225.1010738303968	1044.215447013332	1906.042075432222	273.4834582543083	1092.972259783269	1869.921156313945	296.4995214002907	1059.798355160864	2085.090966169701	550.9169063446849	1128.271332911301	2017.723764943336	562.1171415129091	1100.341350361849	2093.927749805581	660.1121702762814	1145.497784392748	2030.320783569504	670.5276167238758	1117.258991137438	
